# xmcd
#
# Track frame offsets: 
#        150
#        6420
#        22290
#        37859
#        53279
#        68923
#        82843
#        97085
#        110705
#        123574
#        141843
#        158785
#        173927
#        187172
#        206717
#        224162
#        230431
#
# Disc length: 3310 seconds
#
# Revision: 2
# Processed by: cddbd v1.5.2PL0 Copyright (c) Steve Scherf et al.
# Submitted via: ExactAudioCopyFreeDBPlugin 1.0
#
DISCID=fa0cec11
DTITLE=Marie Huana - Tagesabschnittsgefährte
DYEAR=2014
DGENRE=Comedy
TTITLE0=Musik von Marie Huana - Intro
TTITLE1=Am Strand von Hula-Balu
TTITLE2=Du bist Alles
TTITLE3=Männer sind Kenner
TTITLE4=Du bist ein Engel
TTITLE5=X-Miss-Song
TTITLE6=Tagesabschnittsgefährte
TTITLE7=Warum?
TTITLE8=Demokratie
TTITLE9=Das wär' alles nicht passiert
TTITLE10=Mach es mir
TTITLE11=Konsum
TTITLE12=Der Fächerbecher
TTITLE13=In der Disco
TTITLE14=Tränen in der Nacht
TTITLE15=Musik von Marie Huana - Ending
TTITLE16=Du bist bei mir
EXTD=
EXTT0=
EXTT1=
EXTT2=
EXTT3=
EXTT4=
EXTT5=
EXTT6=
EXTT7=
EXTT8=
EXTT9=
EXTT10=
EXTT11=
EXTT12=
EXTT13=
EXTT14=
EXTT15=
EXTT16=
PLAYORDER=
